# xmcd CD database file
#
# Track frame offsets:
#	150
#	10450
#	23562
#	33617
#	45949
#	58544
#	68274
#	80685
#	91713
#	102294
#	114599
#	125361
#	136817
#	148501
#	159149
#	168371
#	181011
#	193160
#	203968
#	216085
#	225566
#	236173
#	248729
#	258869
#	270380
#	282243
#	292089
#	303127
#	314422
#	324564
#
# Disc length: 4487 seconds
#
# Revision: 0
# Processed by: cddbd v1.5.1PL0 Copyright (c) Steve Scherf et al.
# Submitted via: CDex 1.51
#
DISCID=9511851e
DTITLE=Various Artist -  Swinging Hollywood Hillbilly Cowboys: #2: Capitol Towers
DYEAR=2004
DGENRE=Country
TTITLE0=Cliffie Stone - He's A Real Gone Okie
TTITLE1=Wes Tuttle - With Tears In My Eyes
TTITLE2=Eddie Kirk - Sugar Baby
TTITLE3=Gene O'Quinn - Keep A Talkin' Baby
TTITLE4=Jess Willard - Slippin' Around With Jole Blon
TTITLE5=Ramblin' Jimmie Dolan - Juke Box Boogie
TTITLE6=Ken Marvin - Why Don't You Haul Off And Love Me
TTITLE7=Leon Chappel - True Blue Papa
TTITLE8=Merrill E. Moore - House Of Blue Lights
TTITLE9=Wes Tuttle - Rainin' On The Mountain
TTITLE10=Red Murrell - Paper Heart
TTITLE11=Roy Hogsed - She's A Mean Mean Woman
TTITLE12=Ella Mae Morse and T. E. Ford - I'm Hog Tied Over You
TTITLE13=Speedy West and Jimmy Bryant - Bryant's Bounce
TTITLE14=Speedy West - Speedin' West
TTITLE15=Tex Williams - Talkin' Boogie
TTITLE16=Cliffie Stone - Jump Rope Boogie
TTITLE17=Eddie Kirk - Saturday Night Time Blues
TTITLE18=Ole Ramussen - Sleepy Eyed John
TTITLE19=Jenks (Tex) Carman - Hillbilly Hula
TTITLE20=Gene O'Quinn - Boogie Woogie Fever
TTITLE21=Leon Chappel - Streamlined Gal
TTITLE22=Red Murrell - Ernest Tubb's Talking Blues
TTITLE23=Skeets McDonald - Scoot Git And Begone
TTITLE24=Tex Williams - Wild Card
TTITLE25=Jess Willard - Truck Driver's Boogie
TTITLE26=Jack Guthrie - No Need To Knock On My Door
TTITLE27=Ann Jones - Baby Sitter's Blues
TTITLE28=Roy Hogsed - Put Some Sugar In Your Shoes
TTITLE29=Wes Tuttle - Mail Order Mama
EXTD=YEAR: 2004
EXTT0=
EXTT1=
EXTT2=
EXTT3=
EXTT4=
EXTT5=
EXTT6=
EXTT7=
EXTT8=
EXTT9=
EXTT10=
EXTT11=
EXTT12=
EXTT13=
EXTT14=
EXTT15=
EXTT16=
EXTT17=
EXTT18=
EXTT19=
EXTT20=
EXTT21=
EXTT22=
EXTT23=
EXTT24=
EXTT25=
EXTT26=
EXTT27=
EXTT28=
EXTT29=
PLAYORDER=
